<mxfile host="65bd71144e">
    <diagram id="SpHc2GRn2VPp-HtpwvMq" name="col_store">
        <mxGraphModel dx="1140" dy="800" grid="0" gridSize="10" guides="1" tooltips="1" connect="1" arrows="1" fold="1" page="1" pageScale="1" pageWidth="827" pageHeight="1169" math="0" shadow="0">
            <root>
                <mxCell id="0"/>
                <mxCell id="1" parent="0"/>
                <mxCell id="138" value="" style="group;fontColor=#5AA9E6;perimeterSpacing=100;" parent="1" vertex="1" connectable="0">
                    <mxGeometry x="160" y="270" width="460" height="160" as="geometry"/>
                </mxCell>
                <mxCell id="100" value="" style="shape=table;html=1;whiteSpace=wrap;startSize=0;container=1;collapsible=0;childLayout=tableLayout;fillColor=#FFE45E;fontColor=#5AA9E6;strokeColor=#FF6392;columnLines=1;rowLines=0;swimlaneFillColor=none;perimeterSpacing=0;shadow=1;labelBackgroundColor=none;" parent="138" vertex="1">
                    <mxGeometry x="90" width="359.9999999999999" height="160.0000000000001" as="geometry"/>
                </mxCell>
                <mxCell id="101" value="" style="shape=partialRectangle;html=1;whiteSpace=wrap;collapsible=0;dropTarget=0;pointerEvents=0;fillColor=#cce5ff;top=0;left=0;bottom=0;right=0;points=[[0,0.5],[1,0.5]];portConstraint=eastwest;strokeColor=#36393d;" parent="100" vertex="1">
                    <mxGeometry width="359.9999999999999" height="40" as="geometry"/>
                </mxCell>
                <mxCell id="102" value="Header" style="shape=partialRectangle;html=1;connectable=0;top=0;left=0;bottom=0;right=0;overflow=hidden;strokeWidth=1;perimeterSpacing=0;flipH=0;horizontal=1;verticalAlign=middle;whiteSpace=wrap;fillColor=#cce5ff;strokeColor=#36393d;labelBackgroundColor=none;fontColor=#FF0000;" parent="101" vertex="1">
                    <mxGeometry width="60" height="40" as="geometry"/>
                </mxCell>
                <mxCell id="103" value="UserID" style="shape=partialRectangle;html=1;whiteSpace=wrap;connectable=0;top=1;left=1;bottom=0;right=1;overflow=hidden;comic=0;fixDash=0;strokeWidth=4;fillColor=#cce5ff;labelBackgroundColor=none;fontColor=#000000;strokeColor=#FF0000;" parent="101" vertex="1">
                    <mxGeometry x="60" width="60" height="40" as="geometry"/>
                </mxCell>
                <mxCell id="104" value="UserName" style="shape=partialRectangle;html=1;whiteSpace=wrap;connectable=0;top=1;left=1;bottom=0;right=1;overflow=hidden;comic=0;fixDash=0;strokeWidth=4;fillColor=#cce5ff;labelBackgroundColor=none;fontColor=#000000;strokeColor=#FF0000;" parent="101" vertex="1">
                    <mxGeometry x="120" width="60" height="40" as="geometry"/>
                </mxCell>
                <mxCell id="113" value="UserPass" style="shape=partialRectangle;html=1;whiteSpace=wrap;connectable=0;top=1;left=1;bottom=0;right=1;overflow=hidden;comic=0;fixDash=0;strokeWidth=4;fillColor=#cce5ff;labelBackgroundColor=none;fontColor=#000000;strokeColor=#FF0000;" parent="101" vertex="1">
                    <mxGeometry x="180" width="60" height="40" as="geometry"/>
                </mxCell>
                <mxCell id="116" value="hostname" style="shape=partialRectangle;html=1;whiteSpace=wrap;connectable=0;top=1;left=1;bottom=0;right=1;overflow=hidden;comic=0;fixDash=0;strokeWidth=4;fillColor=#cce5ff;labelBackgroundColor=none;fontColor=#000000;strokeColor=#FF0000;" parent="101" vertex="1">
                    <mxGeometry x="240" width="60" height="40" as="geometry"/>
                </mxCell>
                <mxCell id="119" value="lastLogin" style="shape=partialRectangle;html=1;whiteSpace=wrap;connectable=0;top=1;left=1;bottom=0;right=1;overflow=hidden;comic=0;fixDash=0;strokeWidth=4;fillColor=#cce5ff;labelBackgroundColor=none;fontColor=#000000;strokeColor=#FF0000;" parent="101" vertex="1">
                    <mxGeometry x="300" width="60" height="40" as="geometry"/>
                </mxCell>
                <mxCell id="105" value="" style="shape=partialRectangle;html=1;whiteSpace=wrap;collapsible=0;dropTarget=0;pointerEvents=0;fillColor=none;top=0;left=0;bottom=0;right=0;points=[[0,0.5],[1,0.5]];portConstraint=eastwest;strokeColor=#FF6392;fontColor=#5AA9E6;" parent="100" vertex="1">
                    <mxGeometry y="40" width="359.9999999999999" height="40" as="geometry"/>
                </mxCell>
                <mxCell id="106" value="Header" style="shape=partialRectangle;html=1;whiteSpace=wrap;connectable=0;fillColor=#eeeeee;top=0;left=0;bottom=0;right=0;overflow=hidden;strokeColor=#36393d;fontColor=#FF0000;" parent="105" vertex="1">
                    <mxGeometry width="60" height="40" as="geometry"/>
                </mxCell>
                <mxCell id="107" value="UserID" style="shape=partialRectangle;html=1;whiteSpace=wrap;connectable=0;top=0;left=1;bottom=0;right=1;overflow=hidden;comic=0;fixDash=0;strokeWidth=4;fillColor=#eeeeee;fontColor=#000000;strokeColor=#FF0000;" parent="105" vertex="1">
                    <mxGeometry x="60" width="60" height="40" as="geometry"/>
                </mxCell>
                <mxCell id="108" value="&lt;span&gt;UserName&lt;/span&gt;" style="shape=partialRectangle;html=1;whiteSpace=wrap;connectable=0;top=0;left=1;bottom=0;right=1;overflow=hidden;comic=0;fixDash=0;strokeWidth=4;fillColor=#eeeeee;fontColor=#000000;strokeColor=#FF0000;" parent="105" vertex="1">
                    <mxGeometry x="120" width="60" height="40" as="geometry"/>
                </mxCell>
                <mxCell id="114" value="UserPass" style="shape=partialRectangle;html=1;whiteSpace=wrap;connectable=0;top=0;left=1;bottom=0;right=1;overflow=hidden;comic=0;fixDash=0;strokeWidth=4;fillColor=#eeeeee;fontColor=#000000;strokeColor=#FF0000;" parent="105" vertex="1">
                    <mxGeometry x="180" width="60" height="40" as="geometry"/>
                </mxCell>
                <mxCell id="117" value="&lt;span&gt;hostname&lt;/span&gt;" style="shape=partialRectangle;html=1;whiteSpace=wrap;connectable=0;top=0;left=1;bottom=0;right=1;overflow=hidden;comic=0;fixDash=0;strokeWidth=4;fillColor=#eeeeee;fontColor=#000000;strokeColor=#FF0000;" parent="105" vertex="1">
                    <mxGeometry x="240" width="60" height="40" as="geometry"/>
                </mxCell>
                <mxCell id="120" value="&lt;span&gt;lastLogin&lt;/span&gt;" style="shape=partialRectangle;html=1;whiteSpace=wrap;connectable=0;top=0;left=1;bottom=0;right=1;overflow=hidden;comic=0;fixDash=0;strokeWidth=4;fillColor=#eeeeee;fontColor=#000000;strokeColor=#FF0000;" parent="105" vertex="1">
                    <mxGeometry x="300" width="60" height="40" as="geometry"/>
                </mxCell>
                <mxCell id="109" value="" style="shape=partialRectangle;html=1;whiteSpace=wrap;collapsible=0;dropTarget=0;pointerEvents=0;fillColor=none;top=0;left=0;bottom=0;right=0;points=[[0,0.5],[1,0.5]];portConstraint=eastwest;strokeColor=#FF6392;strokeWidth=1;labelBackgroundColor=none;fontColor=#000000;" parent="100" vertex="1">
                    <mxGeometry y="80" width="359.9999999999999" height="40" as="geometry"/>
                </mxCell>
                <mxCell id="110" value="Header" style="shape=partialRectangle;html=1;whiteSpace=wrap;connectable=0;fillColor=#cce5ff;top=0;left=0;bottom=0;right=0;overflow=hidden;strokeColor=#36393d;fontColor=#FF0000;" parent="109" vertex="1">
                    <mxGeometry width="60" height="40" as="geometry"/>
                </mxCell>
                <mxCell id="111" value="&lt;span&gt;UserID&lt;/span&gt;" style="shape=partialRectangle;html=1;whiteSpace=wrap;connectable=0;top=0;left=1;bottom=0;right=1;overflow=hidden;comic=0;fixDash=0;strokeWidth=4;fillColor=#cce5ff;fontColor=#000000;strokeColor=#FF0000;" parent="109" vertex="1">
                    <mxGeometry x="60" width="60" height="40" as="geometry"/>
                </mxCell>
                <mxCell id="112" value="&lt;span&gt;UserName&lt;/span&gt;" style="shape=partialRectangle;html=1;whiteSpace=wrap;connectable=0;top=0;left=1;bottom=0;right=1;overflow=hidden;comic=0;fixDash=0;strokeWidth=4;fillColor=#cce5ff;fontColor=#000000;strokeColor=#FF0000;" parent="109" vertex="1">
                    <mxGeometry x="120" width="60" height="40" as="geometry"/>
                </mxCell>
                <mxCell id="115" value="&lt;span&gt;UserPass&lt;/span&gt;" style="shape=partialRectangle;html=1;whiteSpace=wrap;connectable=0;top=0;left=1;bottom=0;right=1;overflow=hidden;comic=0;fixDash=0;strokeWidth=4;fillColor=#cce5ff;fontColor=#000000;strokeColor=#FF0000;" parent="109" vertex="1">
                    <mxGeometry x="180" width="60" height="40" as="geometry"/>
                </mxCell>
                <mxCell id="118" value="&lt;span&gt;hostname&lt;/span&gt;" style="shape=partialRectangle;html=1;whiteSpace=wrap;connectable=0;top=0;left=1;bottom=0;right=1;overflow=hidden;comic=0;fixDash=0;strokeWidth=4;fillColor=#cce5ff;fontColor=#000000;strokeColor=#FF0000;" parent="109" vertex="1">
                    <mxGeometry x="240" width="60" height="40" as="geometry"/>
                </mxCell>
                <mxCell id="121" value="&lt;span&gt;lastLogin&lt;/span&gt;" style="shape=partialRectangle;html=1;whiteSpace=wrap;connectable=0;top=0;left=1;bottom=0;right=1;overflow=hidden;comic=0;fixDash=0;strokeWidth=4;fillColor=#cce5ff;fontColor=#000000;strokeColor=#FF0000;" parent="109" vertex="1">
                    <mxGeometry x="300" width="60" height="40" as="geometry"/>
                </mxCell>
                <mxCell id="122" style="shape=partialRectangle;html=1;whiteSpace=wrap;collapsible=0;dropTarget=0;pointerEvents=0;fillColor=none;top=0;left=0;bottom=0;right=0;points=[[0,0.5],[1,0.5]];portConstraint=eastwest;strokeColor=#FF6392;fontColor=#5AA9E6;" parent="100" vertex="1">
                    <mxGeometry y="120" width="359.9999999999999" height="40" as="geometry"/>
                </mxCell>
                <mxCell id="123" value="Header" style="shape=partialRectangle;html=1;whiteSpace=wrap;connectable=0;fillColor=#eeeeee;top=0;left=0;bottom=0;right=0;overflow=hidden;strokeColor=#36393d;fontColor=#FF0000;" parent="122" vertex="1">
                    <mxGeometry width="60" height="40" as="geometry"/>
                </mxCell>
                <mxCell id="124" value="&lt;span&gt;UserID&lt;/span&gt;" style="shape=partialRectangle;html=1;whiteSpace=wrap;connectable=0;top=0;left=1;bottom=1;right=1;overflow=hidden;comic=0;fixDash=0;strokeWidth=4;fillColor=#eeeeee;fontColor=#000000;strokeColor=#FF0000;" parent="122" vertex="1">
                    <mxGeometry x="60" width="60" height="40" as="geometry"/>
                </mxCell>
                <mxCell id="125" value="&lt;span&gt;UserName&lt;/span&gt;" style="shape=partialRectangle;html=1;whiteSpace=wrap;connectable=0;top=0;left=1;bottom=1;right=1;overflow=hidden;comic=0;fixDash=0;strokeWidth=4;fillColor=#eeeeee;fontColor=#000000;strokeColor=#FF0000;" parent="122" vertex="1">
                    <mxGeometry x="120" width="60" height="40" as="geometry"/>
                </mxCell>
                <mxCell id="126" value="&lt;span&gt;UserPass&lt;/span&gt;" style="shape=partialRectangle;html=1;whiteSpace=wrap;connectable=0;top=0;left=1;bottom=1;right=1;overflow=hidden;comic=0;fixDash=0;strokeWidth=4;fillColor=#eeeeee;fontColor=#000000;strokeColor=#FF0000;" parent="122" vertex="1">
                    <mxGeometry x="180" width="60" height="40" as="geometry"/>
                </mxCell>
                <mxCell id="127" value="&lt;span&gt;hostname&lt;/span&gt;" style="shape=partialRectangle;html=1;whiteSpace=wrap;connectable=0;top=0;left=1;bottom=1;right=1;overflow=hidden;comic=0;fixDash=0;strokeWidth=4;fillColor=#eeeeee;fontColor=#000000;strokeColor=#FF0000;" parent="122" vertex="1">
                    <mxGeometry x="240" width="60" height="40" as="geometry"/>
                </mxCell>
                <mxCell id="128" value="&lt;span&gt;lastLogin&lt;/span&gt;" style="shape=partialRectangle;html=1;whiteSpace=wrap;connectable=0;top=0;left=1;bottom=1;right=1;overflow=hidden;comic=0;fixDash=0;strokeWidth=4;fillColor=#eeeeee;fontColor=#000000;strokeColor=#FF0000;" parent="122" vertex="1">
                    <mxGeometry x="300" width="60" height="40" as="geometry"/>
                </mxCell>
                <mxCell id="3" value="" style="strokeWidth=2;html=1;shape=mxgraph.flowchart.database;whiteSpace=wrap;fillColor=#FFE45E;strokeColor=#FF6392;fontColor=#5AA9E6;" parent="138" vertex="1">
                    <mxGeometry y="50" width="60" height="60" as="geometry"/>
                </mxCell>
            </root>
        </mxGraphModel>
    </diagram>
    <diagram id="Uk0tmtc436Ld7DfTDM3e" name="row_store">
        <mxGraphModel dx="1140" dy="800" grid="0" gridSize="10" guides="1" tooltips="1" connect="1" arrows="1" fold="1" page="1" pageScale="1" pageWidth="827" pageHeight="1169" math="0" shadow="0">
            <root>
                <mxCell id="9EvnLmMv8z_X7-tKEBCD-0"/>
                <mxCell id="9EvnLmMv8z_X7-tKEBCD-1" parent="9EvnLmMv8z_X7-tKEBCD-0"/>
                <mxCell id="ByoaVtPdEnA8LFYiMdyO-0" value="" style="group;fontColor=#5AA9E6;perimeterSpacing=100;" parent="9EvnLmMv8z_X7-tKEBCD-1" vertex="1" connectable="0">
                    <mxGeometry x="150" y="320" width="460" height="160" as="geometry"/>
                </mxCell>
                <mxCell id="ByoaVtPdEnA8LFYiMdyO-1" value="" style="shape=table;html=1;whiteSpace=wrap;startSize=0;container=1;collapsible=0;childLayout=tableLayout;fillColor=#FFE45E;fontColor=#5AA9E6;strokeColor=#FF6392;columnLines=1;rowLines=0;swimlaneFillColor=none;perimeterSpacing=0;shadow=1;labelBackgroundColor=none;" parent="ByoaVtPdEnA8LFYiMdyO-0" vertex="1">
                    <mxGeometry x="90" width="359.9999999999999" height="160.0000000000001" as="geometry"/>
                </mxCell>
                <mxCell id="ByoaVtPdEnA8LFYiMdyO-2" value="" style="shape=partialRectangle;html=1;whiteSpace=wrap;collapsible=0;dropTarget=0;pointerEvents=0;fillColor=#cce5ff;top=0;left=0;bottom=0;right=0;points=[[0,0.5],[1,0.5]];portConstraint=eastwest;strokeColor=#36393d;" parent="ByoaVtPdEnA8LFYiMdyO-1" vertex="1">
                    <mxGeometry width="359.9999999999999" height="40" as="geometry"/>
                </mxCell>
                <mxCell id="ByoaVtPdEnA8LFYiMdyO-3" value="Header" style="shape=partialRectangle;html=1;connectable=0;top=0;left=0;bottom=0;right=0;overflow=hidden;strokeWidth=1;perimeterSpacing=0;flipH=0;horizontal=1;verticalAlign=middle;whiteSpace=wrap;fillColor=#cce5ff;strokeColor=#36393d;labelBackgroundColor=none;fontColor=#FF0000;" parent="ByoaVtPdEnA8LFYiMdyO-2" vertex="1">
                    <mxGeometry width="60" height="40" as="geometry"/>
                </mxCell>
                <mxCell id="ByoaVtPdEnA8LFYiMdyO-4" value="UserID" style="shape=partialRectangle;html=1;whiteSpace=wrap;connectable=0;top=1;left=1;bottom=1;right=0;overflow=hidden;comic=0;fixDash=0;strokeWidth=4;fillColor=#cce5ff;labelBackgroundColor=none;fontColor=#000000;strokeColor=#FF0000;" parent="ByoaVtPdEnA8LFYiMdyO-2" vertex="1">
                    <mxGeometry x="60" width="60" height="40" as="geometry"/>
                </mxCell>
                <mxCell id="ByoaVtPdEnA8LFYiMdyO-5" value="UserName" style="shape=partialRectangle;html=1;whiteSpace=wrap;connectable=0;top=1;left=0;bottom=0;right=0;overflow=hidden;comic=0;fixDash=0;strokeWidth=4;fillColor=#cce5ff;labelBackgroundColor=none;fontColor=#000000;strokeColor=#FF0000;" parent="ByoaVtPdEnA8LFYiMdyO-2" vertex="1">
                    <mxGeometry x="120" width="60" height="40" as="geometry"/>
                </mxCell>
                <mxCell id="ByoaVtPdEnA8LFYiMdyO-6" value="UserPass" style="shape=partialRectangle;html=1;whiteSpace=wrap;connectable=0;top=1;left=0;bottom=1;right=0;overflow=hidden;comic=0;fixDash=0;strokeWidth=4;fillColor=#cce5ff;labelBackgroundColor=none;fontColor=#000000;strokeColor=#FF0000;" parent="ByoaVtPdEnA8LFYiMdyO-2" vertex="1">
                    <mxGeometry x="180" width="60" height="40" as="geometry"/>
                </mxCell>
                <mxCell id="ByoaVtPdEnA8LFYiMdyO-7" value="hostname" style="shape=partialRectangle;html=1;whiteSpace=wrap;connectable=0;top=1;left=0;bottom=1;right=0;overflow=hidden;comic=0;fixDash=0;strokeWidth=4;fillColor=#cce5ff;labelBackgroundColor=none;fontColor=#000000;strokeColor=#FF0000;" parent="ByoaVtPdEnA8LFYiMdyO-2" vertex="1">
                    <mxGeometry x="240" width="60" height="40" as="geometry"/>
                </mxCell>
                <mxCell id="ByoaVtPdEnA8LFYiMdyO-8" value="lastLogin" style="shape=partialRectangle;html=1;whiteSpace=wrap;connectable=0;top=1;left=0;bottom=1;right=1;overflow=hidden;comic=0;fixDash=0;strokeWidth=4;fillColor=#cce5ff;labelBackgroundColor=none;fontColor=#000000;strokeColor=#FF0000;" parent="ByoaVtPdEnA8LFYiMdyO-2" vertex="1">
                    <mxGeometry x="300" width="60" height="40" as="geometry"/>
                </mxCell>
                <mxCell id="ByoaVtPdEnA8LFYiMdyO-9" value="" style="shape=partialRectangle;html=1;whiteSpace=wrap;collapsible=0;dropTarget=0;pointerEvents=0;fillColor=none;top=0;left=0;bottom=0;right=0;points=[[0,0.5],[1,0.5]];portConstraint=eastwest;strokeColor=#FF6392;fontColor=#5AA9E6;" parent="ByoaVtPdEnA8LFYiMdyO-1" vertex="1">
                    <mxGeometry y="40" width="359.9999999999999" height="40" as="geometry"/>
                </mxCell>
                <mxCell id="ByoaVtPdEnA8LFYiMdyO-10" value="Header" style="shape=partialRectangle;html=1;whiteSpace=wrap;connectable=0;fillColor=#eeeeee;top=0;left=0;bottom=0;right=0;overflow=hidden;strokeColor=#36393d;fontColor=#FF0000;" parent="ByoaVtPdEnA8LFYiMdyO-9" vertex="1">
                    <mxGeometry width="60" height="40" as="geometry"/>
                </mxCell>
                <mxCell id="ByoaVtPdEnA8LFYiMdyO-11" value="UserID" style="shape=partialRectangle;html=1;whiteSpace=wrap;connectable=0;top=1;left=1;bottom=1;right=0;overflow=hidden;comic=0;fixDash=0;strokeWidth=4;fillColor=#eeeeee;fontColor=#000000;strokeColor=#FF0000;" parent="ByoaVtPdEnA8LFYiMdyO-9" vertex="1">
                    <mxGeometry x="60" width="60" height="40" as="geometry"/>
                </mxCell>
                <mxCell id="ByoaVtPdEnA8LFYiMdyO-12" value="&lt;span&gt;UserName&lt;/span&gt;" style="shape=partialRectangle;html=1;whiteSpace=wrap;connectable=0;top=1;left=0;bottom=1;right=0;overflow=hidden;comic=0;fixDash=0;strokeWidth=4;fillColor=#eeeeee;fontColor=#000000;strokeColor=#FF0000;" parent="ByoaVtPdEnA8LFYiMdyO-9" vertex="1">
                    <mxGeometry x="120" width="60" height="40" as="geometry"/>
                </mxCell>
                <mxCell id="ByoaVtPdEnA8LFYiMdyO-13" value="UserPass" style="shape=partialRectangle;html=1;whiteSpace=wrap;connectable=0;top=1;left=0;bottom=1;right=0;overflow=hidden;comic=0;fixDash=0;strokeWidth=4;fillColor=#eeeeee;fontColor=#000000;strokeColor=#FF0000;" parent="ByoaVtPdEnA8LFYiMdyO-9" vertex="1">
                    <mxGeometry x="180" width="60" height="40" as="geometry"/>
                </mxCell>
                <mxCell id="ByoaVtPdEnA8LFYiMdyO-14" value="&lt;span&gt;hostname&lt;/span&gt;" style="shape=partialRectangle;html=1;whiteSpace=wrap;connectable=0;top=1;left=0;bottom=1;right=0;overflow=hidden;comic=0;fixDash=0;strokeWidth=4;fillColor=#eeeeee;fontColor=#000000;strokeColor=#FF0000;" parent="ByoaVtPdEnA8LFYiMdyO-9" vertex="1">
                    <mxGeometry x="240" width="60" height="40" as="geometry"/>
                </mxCell>
                <mxCell id="ByoaVtPdEnA8LFYiMdyO-15" value="&lt;span&gt;lastLogin&lt;/span&gt;" style="shape=partialRectangle;html=1;whiteSpace=wrap;connectable=0;top=1;left=0;bottom=1;right=1;overflow=hidden;comic=0;fixDash=0;strokeWidth=4;fillColor=#eeeeee;fontColor=#000000;strokeColor=#FF0000;" parent="ByoaVtPdEnA8LFYiMdyO-9" vertex="1">
                    <mxGeometry x="300" width="60" height="40" as="geometry"/>
                </mxCell>
                <mxCell id="ByoaVtPdEnA8LFYiMdyO-16" value="" style="shape=partialRectangle;html=1;whiteSpace=wrap;collapsible=0;dropTarget=0;pointerEvents=0;fillColor=none;top=0;left=0;bottom=0;right=0;points=[[0,0.5],[1,0.5]];portConstraint=eastwest;strokeColor=#FF6392;strokeWidth=1;labelBackgroundColor=none;fontColor=#000000;" parent="ByoaVtPdEnA8LFYiMdyO-1" vertex="1">
                    <mxGeometry y="80" width="359.9999999999999" height="40" as="geometry"/>
                </mxCell>
                <mxCell id="ByoaVtPdEnA8LFYiMdyO-17" value="Header" style="shape=partialRectangle;html=1;whiteSpace=wrap;connectable=0;fillColor=#cce5ff;top=0;left=0;bottom=0;right=0;overflow=hidden;strokeColor=#36393d;fontColor=#FF0000;" parent="ByoaVtPdEnA8LFYiMdyO-16" vertex="1">
                    <mxGeometry width="60" height="40" as="geometry"/>
                </mxCell>
                <mxCell id="ByoaVtPdEnA8LFYiMdyO-18" value="&lt;span&gt;UserID&lt;/span&gt;" style="shape=partialRectangle;html=1;whiteSpace=wrap;connectable=0;top=1;left=1;bottom=1;right=0;overflow=hidden;comic=0;fixDash=0;strokeWidth=4;fillColor=#cce5ff;fontColor=#000000;strokeColor=#FF0000;" parent="ByoaVtPdEnA8LFYiMdyO-16" vertex="1">
                    <mxGeometry x="60" width="60" height="40" as="geometry"/>
                </mxCell>
                <mxCell id="ByoaVtPdEnA8LFYiMdyO-19" value="&lt;span&gt;UserName&lt;/span&gt;" style="shape=partialRectangle;html=1;whiteSpace=wrap;connectable=0;top=1;left=0;bottom=1;right=0;overflow=hidden;comic=0;fixDash=0;strokeWidth=4;fillColor=#cce5ff;fontColor=#000000;strokeColor=#FF0000;" parent="ByoaVtPdEnA8LFYiMdyO-16" vertex="1">
                    <mxGeometry x="120" width="60" height="40" as="geometry"/>
                </mxCell>
                <mxCell id="ByoaVtPdEnA8LFYiMdyO-20" value="&lt;span&gt;UserPass&lt;/span&gt;" style="shape=partialRectangle;html=1;whiteSpace=wrap;connectable=0;top=1;left=0;bottom=1;right=0;overflow=hidden;comic=0;fixDash=0;strokeWidth=4;fillColor=#cce5ff;fontColor=#000000;strokeColor=#FF0000;" parent="ByoaVtPdEnA8LFYiMdyO-16" vertex="1">
                    <mxGeometry x="180" width="60" height="40" as="geometry"/>
                </mxCell>
                <mxCell id="ByoaVtPdEnA8LFYiMdyO-21" value="&lt;span&gt;hostname&lt;/span&gt;" style="shape=partialRectangle;html=1;whiteSpace=wrap;connectable=0;top=1;left=0;bottom=1;right=0;overflow=hidden;comic=0;fixDash=0;strokeWidth=4;fillColor=#cce5ff;fontColor=#000000;strokeColor=#FF0000;" parent="ByoaVtPdEnA8LFYiMdyO-16" vertex="1">
                    <mxGeometry x="240" width="60" height="40" as="geometry"/>
                </mxCell>
                <mxCell id="ByoaVtPdEnA8LFYiMdyO-22" value="&lt;span&gt;lastLogin&lt;/span&gt;" style="shape=partialRectangle;html=1;whiteSpace=wrap;connectable=0;top=1;left=0;bottom=1;right=1;overflow=hidden;comic=0;fixDash=0;strokeWidth=4;fillColor=#cce5ff;fontColor=#000000;strokeColor=#FF0000;" parent="ByoaVtPdEnA8LFYiMdyO-16" vertex="1">
                    <mxGeometry x="300" width="60" height="40" as="geometry"/>
                </mxCell>
                <mxCell id="ByoaVtPdEnA8LFYiMdyO-23" style="shape=partialRectangle;html=1;whiteSpace=wrap;collapsible=0;dropTarget=0;pointerEvents=0;fillColor=none;top=0;left=0;bottom=0;right=0;points=[[0,0.5],[1,0.5]];portConstraint=eastwest;strokeColor=#FF6392;fontColor=#5AA9E6;" parent="ByoaVtPdEnA8LFYiMdyO-1" vertex="1">
                    <mxGeometry y="120" width="359.9999999999999" height="40" as="geometry"/>
                </mxCell>
                <mxCell id="ByoaVtPdEnA8LFYiMdyO-24" value="Header" style="shape=partialRectangle;html=1;whiteSpace=wrap;connectable=0;fillColor=#eeeeee;top=0;left=0;bottom=0;right=0;overflow=hidden;strokeColor=#36393d;fontColor=#FF0000;" parent="ByoaVtPdEnA8LFYiMdyO-23" vertex="1">
                    <mxGeometry width="60" height="40" as="geometry"/>
                </mxCell>
                <mxCell id="ByoaVtPdEnA8LFYiMdyO-25" value="&lt;span&gt;UserID&lt;/span&gt;" style="shape=partialRectangle;html=1;whiteSpace=wrap;connectable=0;top=1;left=1;bottom=1;right=0;overflow=hidden;comic=0;fixDash=0;strokeWidth=4;fillColor=#eeeeee;fontColor=#000000;strokeColor=#FF0000;" parent="ByoaVtPdEnA8LFYiMdyO-23" vertex="1">
                    <mxGeometry x="60" width="60" height="40" as="geometry"/>
                </mxCell>
                <mxCell id="ByoaVtPdEnA8LFYiMdyO-26" value="&lt;span&gt;UserName&lt;/span&gt;" style="shape=partialRectangle;html=1;whiteSpace=wrap;connectable=0;top=1;left=0;bottom=1;right=0;overflow=hidden;comic=0;fixDash=0;strokeWidth=4;fillColor=#eeeeee;fontColor=#000000;strokeColor=#FF0000;" parent="ByoaVtPdEnA8LFYiMdyO-23" vertex="1">
                    <mxGeometry x="120" width="60" height="40" as="geometry"/>
                </mxCell>
                <mxCell id="ByoaVtPdEnA8LFYiMdyO-27" value="&lt;span&gt;UserPass&lt;/span&gt;" style="shape=partialRectangle;html=1;whiteSpace=wrap;connectable=0;top=1;left=0;bottom=1;right=0;overflow=hidden;comic=0;fixDash=0;strokeWidth=4;fillColor=#eeeeee;fontColor=#000000;strokeColor=#FF0000;" parent="ByoaVtPdEnA8LFYiMdyO-23" vertex="1">
                    <mxGeometry x="180" width="60" height="40" as="geometry"/>
                </mxCell>
                <mxCell id="ByoaVtPdEnA8LFYiMdyO-28" value="&lt;span&gt;hostname&lt;/span&gt;" style="shape=partialRectangle;html=1;whiteSpace=wrap;connectable=0;top=1;left=0;bottom=1;right=0;overflow=hidden;comic=0;fixDash=0;strokeWidth=4;fillColor=#eeeeee;fontColor=#000000;strokeColor=#FF0000;" parent="ByoaVtPdEnA8LFYiMdyO-23" vertex="1">
                    <mxGeometry x="240" width="60" height="40" as="geometry"/>
                </mxCell>
                <mxCell id="ByoaVtPdEnA8LFYiMdyO-29" value="&lt;span&gt;lastLogin&lt;/span&gt;" style="shape=partialRectangle;html=1;whiteSpace=wrap;connectable=0;top=1;left=0;bottom=1;right=1;overflow=hidden;comic=0;fixDash=0;strokeWidth=4;fillColor=#eeeeee;fontColor=#000000;strokeColor=#FF0000;" parent="ByoaVtPdEnA8LFYiMdyO-23" vertex="1">
                    <mxGeometry x="300" width="60" height="40" as="geometry"/>
                </mxCell>
                <mxCell id="ByoaVtPdEnA8LFYiMdyO-30" value="" style="strokeWidth=2;html=1;shape=mxgraph.flowchart.database;whiteSpace=wrap;fillColor=#FFE45E;strokeColor=#FF6392;fontColor=#5AA9E6;" parent="ByoaVtPdEnA8LFYiMdyO-0" vertex="1">
                    <mxGeometry y="50" width="60" height="60" as="geometry"/>
                </mxCell>
            </root>
        </mxGraphModel>
    </diagram>
</mxfile>
